# xmcd CD database file
#
# Track frame offsets:
#	150
#	16506
#	32252
#	49637
#	66158
#	84180
#	98625
#	114249
#	129705
#	145136
#	159303
#
# Disc length: 2365 seconds
#
# Revision: 0
# Processed by: cddbd v1.5.1PL0 Copyright (c) Steve Scherf et al.
# Submitted via: CDex 1.51
#
DISCID=75093b0b
DTITLE=Ted Ball - Family Selections
DYEAR=2000
DGENRE=Country
TTITLE0=Some Days Are Diamonds
TTITLE1=For Ever And Ever Amen
TTITLE2=Seven Spanish Angels
TTITLE3=I Want To Dance With You
TTITLE4=Blackboard Of My Heart
TTITLE5=Unchained Melody
TTITLE6=Good Hearted Woman
TTITLE7=Don't Worry 'bout Me
TTITLE8=Fly Like a Bird
TTITLE9=Tonight Carmen
TTITLE10=Saddle For A Throne
EXTD=YEAR: 2000
EXTT0=
EXTT1=
EXTT2=
EXTT3=
EXTT4=
EXTT5=
EXTT6=
EXTT7=
EXTT8=
EXTT9=
EXTT10=
PLAYORDER=
